<svg width="15" height="14" viewBox="0 0 15 14" fill="none" xmlns="http://www.w3.org/2000/svg">
<path d="M4.57141 1.5238L5.09026 0.668938L4.57141 0.35403L4.05256 0.668938L4.57141 1.5238ZM7.57141 3.34461L7.05256 4.19948L7.57141 4.51439L8.09026 4.19948L7.57141 3.34461ZM1.57141 3.34461L1.05256 2.48975L0.571411 2.78177V3.34461H1.57141ZM1.57141 7.24635H0.571411V7.70787L0.922614 8.00731L1.57141 7.24635ZM7.57141 12.362L6.92261 13.1229L7.57141 13.6761L8.22021 13.1229L7.57141 12.362ZM13.5714 7.24635L14.2202 8.00731L14.5714 7.70787V7.24635H13.5714ZM13.5714 3.34461H14.5714V2.78177L14.0903 2.48975L13.5714 3.34461ZM10.5714 1.5238L11.0903 0.668938L10.5714 0.35403L10.0526 0.668938L10.5714 1.5238ZM4.05256 2.37867L7.05256 4.19948L8.09026 2.48975L5.09026 0.668938L4.05256 2.37867ZM2.09026 4.19948L5.09026 2.37867L4.05256 0.668938L1.05256 2.48975L2.09026 4.19948ZM2.57141 7.24635V3.34461H0.571411V7.24635H2.57141ZM8.22021 11.601L2.22021 6.48538L0.922614 8.00731L6.92261 13.1229L8.22021 11.601ZM8.22021 13.1229L14.2202 8.00731L12.9226 6.48538L6.92261 11.601L8.22021 13.1229ZM14.5714 7.24635V3.34461H12.5714V7.24635H14.5714ZM14.0903 2.48975L11.0903 0.668938L10.0526 2.37867L13.0526 4.19948L14.0903 2.48975ZM10.0526 0.668938L7.05256 2.48975L8.09026 4.19948L11.0903 2.37867L10.0526 0.668938Z" fill="white"/>
</svg>
